<?xml version="1.0" encoding="UTF-8"?>
<svg version="1.1" xmlns="http://www.w3.org/2000/svg" width="1024" height="1024">
<path d="M0 0 C337.92 0 675.84 0 1024 0 C1024 337.92 1024 675.84 1024 1024 C686.08 1024 348.16 1024 0 1024 C0 686.08 0 348.16 0 0 Z " fill="#0062DC" transform="translate(0,0)"/>
<path d="M0 0 C9.85222464 4.70028634 21.42139878 16.02680923 26 26 C25.60716104 30.5589995 24.27190776 33.82511763 22.04296875 37.7890625 C21.12487427 39.43430908 21.12487427 39.43430908 20.18823242 41.11279297 C19.5219096 42.2838634 18.85498549 43.45459188 18.1875 44.625 C17.50397389 45.83590882 16.8207904 47.0470111 16.13793945 48.25830078 C14.10809195 51.84823749 12.05614777 55.42506063 10 59 C9.14728516 60.48790039 9.14728516 60.48790039 8.27734375 62.00585938 C5.38425596 67.02789015 2.41013372 71.98232353 -0.69140625 76.87841797 C-1.91834303 78.86761212 -3.03983808 80.88890175 -4.15625 82.94140625 C-7.69273726 88.93671784 -10.77976645 91.90601021 -17.4921875 93.79296875 C-21.51931561 94.73640143 -25.54950443 95.44447808 -29.63671875 96.0703125 C-41.91140729 97.98883245 -49.29589838 105.61704218 -57.06352234 114.86061096 C-59.13196827 117.1457964 -61.32491697 119.14497507 -63.63989258 121.17944336 C-68.6796839 125.67347184 -73.49413988 130.34894686 -78.26171875 135.12890625 C-79.09661331 135.96284409 -79.93150787 136.79678192 -80.79170227 137.6559906 C-82.53985281 139.40346627 -84.28676385 141.15218273 -86.0324707 142.90209961 C-88.68783959 145.56284028 -91.34852617 148.2181793 -94.00976562 150.87304688 C-95.71907081 152.5830127 -97.42806586 154.29328862 -99.13671875 156.00390625 C-99.9222966 156.78745987 -100.70787445 157.57101349 -101.51725769 158.37831116 C-102.26526138 159.12946701 -103.01326508 159.88062286 -103.78393555 160.65454102 C-104.43106003 161.30246109 -105.07818451 161.95038116 -105.74491882 162.61793518 C-107.57213132 164.54803803 -109.29897792 166.5082733 -111.02536011 168.52635193 C-116.01433544 174.25673015 -121.43203234 179.56362536 -126.81030273 184.92382812 C-127.99380124 186.10704408 -129.17707865 187.29048123 -130.3601532 188.47412109 C-133.55161727 191.66587049 -136.74614135 194.85454084 -139.94124866 198.04264259 C-143.28758954 201.38270566 -146.63107327 204.72562638 -149.97486877 208.0682373 C-156.29792141 214.38818963 -162.62351742 220.70558987 -168.95004469 227.02206373 C-176.15640737 234.21722478 -183.35990952 241.41524679 -190.56317985 248.61350346 C-205.37228585 263.41217454 -220.18495755 278.2072721 -235 293 C-234.06891665 294.10207811 -233.1355119 295.20219521 -232.20117188 296.30151367 C-231.6816394 296.91435715 -231.16210693 297.52720062 -230.62683105 298.15861511 C-228.58061953 300.47469026 -226.38708738 302.59720519 -224.15356445 304.73022461 C-217.05619613 311.52160865 -209.95407711 319.01249479 -208 329 C-208 335.97731122 -210.19062662 340.00310518 -215 345 C-218.89767489 348.47401458 -220.57325026 349.03494081 -225.828125 348.90625 C-227.97232983 348.75850096 -230.09362996 348.56646226 -232.22607422 348.29711914 C-236.85321711 347.77168655 -239.31511333 348.11384104 -243 351 C-246.79783077 355.01484967 -247.29704842 358.28837127 -247.9375 363.75 C-249.64518977 377.24216051 -257.18449027 385.27573093 -266 395 C-266.92720451 396.03895437 -267.85429269 397.07801257 -268.78125 398.1171875 C-275.6593403 405.74977462 -282.91965153 412.99350957 -290.23852539 420.2019043 C-291.01188232 420.96672119 -291.78523926 421.73153809 -292.58203125 422.51953125 C-293.26499268 423.19089111 -293.9479541 423.86225098 -294.65161133 424.55395508 C-296.60218586 426.58564301 -298.44549633 428.65267117 -300.28393555 430.78393555 C-303.96924967 435.02471909 -307.87956701 438.99042536 -311.875 442.9375 C-312.60315918 443.66187256 -313.33131836 444.38624512 -314.08154297 445.13256836 C-317.16056951 448.19542424 -320.24558323 451.25222311 -323.33007812 454.30957031 C-325.59715458 456.55844117 -327.86112966 458.81040238 -330.125 461.0625 C-330.81062012 461.73982178 -331.49624023 462.41714355 -332.20263672 463.11499023 C-336.14918005 467.04170898 -339.89088675 471.07606233 -343.49879456 475.31695557 C-351.59451581 484.39330061 -364.3188636 487.46653446 -376.01953125 488.37890625 C-391.8528227 488.86058636 -407.18406869 485.185563 -419.1015625 474.359375 C-429.85999262 464.18260998 -441.88474276 452.03450235 -445 437 C-445.19980469 436.12988281 -445.39960938 435.25976562 -445.60546875 434.36328125 C-448.7736637 419.117672 -446.51394237 404.08043695 -438.08984375 390.84765625 C-434.15279613 385.48296893 -429.6623366 380.7247229 -425 376 C-424.39494629 375.38125 -423.78989258 374.7625 -423.16650391 374.125 C-411.69618366 362.4135968 -411.69618366 362.4135968 -406.34838867 357.8527832 C-401.60032442 353.71546453 -397.1786699 349.28662158 -392.75 344.8125 C-391.89245117 343.95116455 -391.03490234 343.0898291 -390.15136719 342.20239258 C-387.43179111 339.4706888 -384.715488 336.73576725 -382 334 C-378.41961974 330.39288149 -374.83584819 326.78918198 -371.25 323.1875 C-370.44143555 322.37063721 -369.63287109 321.55377441 -368.79980469 320.7121582 C-364.55436044 316.44860501 -360.23578285 312.35046079 -355.6590271 308.4432373 C-353.51742461 306.58019323 -351.57266633 304.56314062 -349.625 302.5 C-345.17068081 297.98402934 -340.33494196 294.40941655 -335 291 C-334.21367187 290.47019531 -333.42734375 289.94039063 -332.6171875 289.39453125 C-328.60748572 287.25801851 -324.39764235 286.74854134 -319.9609375 285.94140625 C-316.50231077 284.84176372 -315.79978155 284.07737763 -314 281 C-313.65310983 278.5056964 -313.65310983 278.5056964 -313.84765625 275.82421875 C-313.87537109 274.83099609 -313.90308594 273.83777344 -313.93164062 272.81445312 C-314.01839767 270.74134814 -314.10949485 268.66841992 -314.20507812 266.59570312 C-314.37779685 260.07873093 -313.9669759 256.26373779 -310 251 C-305.63366994 246.7480716 -300.4313657 245.14601556 -294.4296875 244.890625 C-284.54213398 245.33572387 -278.66911682 252.52749366 -272 259 C-270.34522811 260.5957607 -268.67994375 262.18076094 -267 263.75 C-266.319375 264.40484375 -265.63875 265.0596875 -264.9375 265.734375 C-263.11477296 267.22270757 -263.11477296 267.22270757 -261.09420013 266.76270485 C-258.67865827 265.88296778 -257.41018993 264.83491595 -255.55529785 263.06234741 C-254.89905174 262.4409469 -254.24280563 261.81954639 -253.56667328 261.17931557 C-252.8621125 260.49671858 -252.15755173 259.81412159 -251.43164062 259.11083984 C-250.31059811 258.0394278 -250.31059811 258.0394278 -249.16690826 256.94637108 C-240.35865166 248.49213133 -231.72044693 239.86523476 -223.09375 231.2265625 C-221.34938849 229.48287666 -219.60487873 227.73933911 -217.86022949 225.99594116 C-214.24520438 222.38237478 -210.63195523 218.76704494 -207.02001953 215.15039062 C-202.38424639 210.50885659 -197.74391021 205.87191412 -193.10228729 201.23623085 C-189.51813574 197.65567999 -185.93635311 194.07276708 -182.3553009 190.48911667 C-180.64314701 188.77629545 -178.93024928 187.06421745 -177.21659851 185.35289383 C-174.84054539 182.97936598 -172.46769611 180.60268205 -170.09570312 178.22509766 C-169.03309517 177.16552605 -169.03309517 177.16552605 -167.94902039 176.08454895 C-167.30749527 175.44020401 -166.66597015 174.79585907 -166.00500488 174.13198853 C-165.1656477 173.2920658 -165.1656477 173.2920658 -164.3093338 172.43517494 C-162.8936241 171.01428364 -162.8936241 171.01428364 -162 169 C-161.34 169 -160.68 169 -160 169 C-159.34 167.68 -158.68 166.36 -158 165 C-157.34 165 -156.68 165 -156 165 C-155.74031653 164.41472188 -155.48063307 163.82944376 -155.21308041 163.22642994 C-153.91267837 160.83973405 -152.52043497 159.28470959 -150.5907135 157.37712097 C-149.88551071 156.67494949 -149.18030792 155.97277802 -148.45373535 155.24932861 C-147.680177 154.489245 -146.90661865 153.72916138 -146.10961914 152.94604492 C-145.29484604 152.13740494 -144.48007294 151.32876495 -143.64060974 150.49562073 C-141.87046633 148.73978638 -140.09809571 146.98619523 -138.32377815 145.23457909 C-135.51557219 142.46112706 -132.71449189 139.68066372 -129.91539001 136.89802551 C-121.95600174 128.98688129 -113.98496463 121.08753643 -106.00512695 113.19702148 C-101.12449838 108.37085407 -96.25454198 103.53409833 -91.39004326 98.69167519 C-89.53467137 96.8487154 -87.67551356 95.00955891 -85.81251717 93.17430687 C-83.20573847 90.60600071 -80.61155134 88.02557142 -78.01977539 85.44213867 C-77.24824127 84.68812775 -76.47670715 83.93411682 -75.68179321 83.15725708 C-69.59734265 77.05039155 -67.31675265 71.70476261 -65.09765625 63.3671875 C-64.76443359 62.14902344 -64.43121094 60.93085938 -64.08789062 59.67578125 C-63.40259554 57.13562079 -62.72293255 54.59393436 -62.04882812 52.05078125 C-61.71431641 50.83519531 -61.37980469 49.61960938 -61.03515625 48.3671875 C-60.59248413 46.71372314 -60.59248413 46.71372314 -60.14086914 45.02685547 C-57.88817651 39.05020595 -53.86728295 35.90162313 -48.671875 32.48046875 C-48.05367386 32.06422241 -47.43547272 31.64797607 -46.79853821 31.21911621 C-44.78734242 29.86763225 -42.76885502 28.52750924 -40.75 27.1875 C-39.35948511 26.2563011 -37.96943342 25.32441016 -36.57983398 24.3918457 C-33.06808865 22.03784375 -29.55020524 19.69320854 -26.0302124 17.3515625 C-22.88815348 15.25981633 -19.75090753 13.16088636 -16.61328125 11.0625 C-11.08191805 7.36535971 -5.54367805 3.6786484 0 0 Z " fill="#FDFDFD" transform="translate(703,118)"/>
<path d="M0 0 C18.97099542 15.74245752 31.29952427 38.92083264 34.77734375 63.3046875 C34.98743261 67.61341901 35.00533816 71.91934266 35.01757812 76.23291016 C35.02718774 78.27158963 35.05821705 80.30921674 35.08984375 82.34765625 C35.13855171 89.17500025 34.66880761 95.28211883 32.90625 101.91015625 C31.75774499 106.19798422 31.75774499 106.19798422 32.58837891 110.37744141 C34.08640945 112.10731629 35.58529616 113.31479038 37.46484375 114.6171875 C38.37435791 115.3450647 38.37435791 115.3450647 39.30224609 116.08764648 C40.52922446 117.06887372 41.7711672 118.03170094 43.02783203 118.97460938 C45.44102156 120.80925305 47.66582498 122.8227846 49.90234375 124.8671875 C50.69511719 125.57875 51.48789062 126.2903125 52.3046875 127.0234375 C59.56058245 133.7176597 66.40336533 140.76688287 72.77734375 148.3046875 C73.67091924 149.31204653 74.56553258 150.31848548 75.4609375 151.32421875 C76.4003058 152.40054776 77.33910884 153.47737037 78.27734375 154.5546875 C78.73568604 155.06249756 79.19402832 155.57030762 79.66625977 156.09350586 C82.77626246 159.71754869 82.77626246 159.71754869 82.78125 162.42578125 C81.54072547 164.74754118 80.11490341 166.29149417 78.21484375 168.1171875 C77.57417969 168.74238281 76.93351563 169.36757813 76.2734375 170.01171875 C74.26469713 171.85699355 72.22638204 173.63568247 70.15625 175.41015625 C64.9414968 179.95235136 60.13003757 184.8823711 55.27734375 189.8046875 C49.87865216 195.28083521 44.48578669 200.64427383 38.64013672 205.64257812 C36.69629044 207.37700873 34.90168954 209.19584283 33.109375 211.0859375 C32.52607422 211.69953125 31.94277344 212.313125 31.34179688 212.9453125 C30.15268674 214.20733351 28.973267 215.47854187 27.80273438 216.7578125 C23.47412904 221.26456956 23.47412904 221.26456956 20.19921875 221.453125 C10.85470436 217.02201656 2.95673826 208.98391843 -4.47705078 201.953125 C-6.44613534 200.09364822 -8.42587946 198.24588826 -10.40625 196.3984375 C-29.55579048 178.50311367 -29.55579048 178.50311367 -33.22265625 174.3046875 C-33.22265625 173.6446875 -33.22265625 172.9846875 -33.22265625 172.3046875 C-33.92648437 172.57023438 -34.6303125 172.83578125 -35.35546875 173.109375 C-59.67817968 181.80966585 -86.06570683 180.08934616 -109.38720703 169.20263672 C-120.91633931 163.56228709 -130.24275954 156.43532588 -139.22265625 147.3046875 C-140.05667969 146.469375 -140.89070313 145.6340625 -141.75 144.7734375 C-158.92858871 126.68453041 -167.61784785 103.01068459 -167.72265625 78.3671875 C-167.73208252 76.69825439 -167.73208252 76.69825439 -167.74169922 74.99560547 C-167.62541947 67.41032768 -166.36628639 60.57385529 -164.22265625 53.3046875 C-150.52924382 56.27698463 -135.96488855 75.48819077 -126.4375 85.171875 C-125.54220078 86.07883621 -125.54220078 86.07883621 -124.6288147 87.00411987 C-121.61506852 90.05723569 -118.61212019 93.11961382 -115.62695312 96.20068359 C-114.50174027 97.34515754 -113.37610679 98.48921813 -112.25 99.6328125 C-111.74629379 100.16035126 -111.24258759 100.68789001 -110.72361755 101.23141479 C-106.08728765 105.90073754 -101.85068279 108.01268455 -95.28515625 108.7421875 C-77.37473618 108.03921879 -62.32988377 100.02387607 -50.22265625 87.18359375 C-40.98205768 76.32987345 -38.93571331 64.22220963 -39.97460938 50.40722656 C-41.05052651 41.28734629 -45.96925621 35.03492917 -52.79882812 29.21850586 C-57.66691754 24.98132426 -62.20614769 20.44700797 -66.75390625 15.87109375 C-67.63042847 14.99315659 -68.50695068 14.11521942 -69.41003418 13.2106781 C-72.18328421 10.43187254 -74.95301907 7.64959353 -77.72265625 4.8671875 C-79.6127643 2.97148885 -81.50367143 1.07658967 -83.39453125 -0.81835938 C-88.00656629 -5.44136439 -92.61572766 -10.06721907 -97.22265625 -14.6953125 C-75.46575976 -37.75290883 -19.66194433 -15.34716811 0 0 Z " fill="#FDFEFD" transform="translate(421.22265625,133.6953125)"/>
<path d="M0 0 C2.75716711 0.75951492 3.99163461 1.29957166 5.99253845 3.26002502 C6.78917908 4.01992737 6.78917908 4.01992737 7.60191345 4.79518127 C8.13558533 5.32756409 8.6692572 5.8599469 9.21910095 6.40846252 C10.28823714 7.4435331 11.35856551 8.47737357 12.43003845 9.51002502 C12.95511993 10.02110809 13.48020142 10.53219116 14.02119446 11.0587616 C15.74129457 12.68619463 17.50951444 14.21866804 19.31529236 15.74977112 C24.46893244 20.24414499 29.2622105 25.0889072 34.0756073 29.93980408 C35.75624335 31.63339114 37.44014724 33.32367029 39.12486267 35.01319885 C43.30548106 39.2070727 47.48059075 43.40641652 51.65586853 47.60560608 C55.19595812 51.16554083 58.73816817 54.72334073 62.28312683 58.27842712 C63.92908201 59.93078784 65.5719574 61.58616717 67.21470642 63.24171448 C71.97033731 68.02035171 76.76793069 72.67450723 81.89463806 77.05885315 C85.87835248 80.5830809 89.57212702 84.41160858 93.31285095 88.18971252 C94.19259583 89.07324402 95.0723407 89.95677551 95.97874451 90.86708069 C99.2406704 94.14318572 102.49802659 97.42381233 105.75505066 100.70478821 C108.95897355 103.9317679 112.16679211 107.15484332 115.37535095 110.37721252 C116.20578918 111.2159491 117.03622742 112.05468567 117.89183044 112.9188385 C122.11258185 117.15713981 126.4073421 121.21781072 130.9420929 125.1174469 C134.13226962 127.91180113 137.14443981 130.88175651 140.1605072 133.86158752 C140.8206633 134.51367188 141.4808194 135.16575623 142.16098022 135.83760071 C143.54467641 137.20757911 144.9269098 138.57903642 146.307724 139.95191956 C147.70430457 141.33696619 149.10534385 142.71753174 150.510849 144.09352112 C163.88169787 157.18467127 175.64573572 170.58354427 176.15660095 190.34596252 C175.98994911 203.96141838 169.24430056 216.41717723 160.09410095 226.22096252 C155.18346357 230.87039579 150.19667537 233.56924709 143.84410095 235.78346252 C142.62722595 236.21658752 141.41035095 236.64971252 140.15660095 237.09596252 C126.8454433 239.90548965 113.47563129 237.69476795 101.65660095 231.09596252 C92.49413567 225.09316343 84.84815858 216.93927363 77.1448822 209.21705627 C75.82595222 207.89956139 75.82595222 207.89956139 74.4803772 206.55545044 C72.63806957 204.71381808 70.79700307 202.87094336 68.95713806 201.02687073 C66.1569125 198.22127467 63.35136923 195.42107596 60.54527283 192.62135315 C58.74482181 190.82024149 56.94468094 189.01881973 55.1448822 187.21705627 C54.31555679 186.3897551 53.48623138 185.56245392 52.6317749 184.71008301 C48.39147028 180.45281728 44.32156963 176.11737145 40.40188599 171.56362915 C38.23729289 169.09002958 35.93385702 166.77842135 33.59410095 164.47096252 C33.13229431 164.0129425 32.67048767 163.55492249 32.19468689 163.08302307 C30.74697373 161.64730077 29.29601238 160.2149382 27.84410095 158.78346252 C25.92434151 156.89072382 24.00822842 154.99439494 22.09410095 153.09596252 C21.2536322 152.26709534 20.41316345 151.43822815 19.54722595 150.58424377 C17.46689335 148.42875465 15.50174099 146.25526307 13.54917908 143.98854065 C9.66852528 139.51583368 5.52158319 135.3519544 1.31285095 131.18971252 C0.12072998 130.00327148 0.12072998 130.00327148 -1.09547424 128.79286194 C-3.61318336 126.28726729 -6.13411351 123.78495395 -8.65589905 121.28346252 C-11.98178094 117.98434573 -15.30422241 114.68181879 -18.62464905 111.37721252 C-19.3758905 110.63426941 -20.12713196 109.89132629 -20.90113831 109.12586975 C-24.96082094 105.08487328 -28.84445953 100.95995343 -32.56141663 96.6006012 C-35.42813874 93.33356511 -38.55460102 90.32557093 -41.65589905 87.28346252 C-58.5529492 70.51237108 -58.5529492 70.51237108 -62.15589905 62.78346252 C-62.11795772 59.64697945 -61.01376896 58.62510305 -58.89808655 56.26783752 C-57.95191467 55.36549377 -57.0057428 54.46315002 -56.03089905 53.53346252 C-52.88059429 50.51405685 -49.87752939 47.50667924 -47.04139709 44.19093323 C-40.33052289 36.48352397 -33.05125902 29.29802068 -25.86756897 22.03517151 C-24.00917083 20.14995146 -22.15797638 18.25760453 -20.31385803 16.3584137 C-17.64104978 13.60693071 -14.94634086 10.87873416 -12.2457428 8.15455627 C-11.42371872 7.29954025 -10.60169464 6.44452423 -9.75476074 5.56359863 C-8.58808617 4.40097252 -8.58808617 4.40097252 -7.39784241 3.21485901 C-6.72168381 2.52617233 -6.04552521 1.83748566 -5.34887695 1.12792969 C-3.15589905 -0.21653748 -3.15589905 -0.21653748 0 0 Z " fill="#FDFEFD" transform="translate(560.1558990478516,351.21653747558594)"/>
<path d="M0 0 C1.97403717 -0.37473011 1.97403717 -0.37473011 4.44104004 -0.3742218 C5.8417852 -0.38474327 5.8417852 -0.38474327 7.27082825 -0.39547729 C8.81222725 -0.38401169 8.81222725 -0.38401169 10.38476562 -0.37231445 C11.46449142 -0.37596512 12.54421722 -0.37961578 13.65666199 -0.38337708 C17.24001601 -0.39150962 20.82292165 -0.37784971 24.40625 -0.36328125 C26.88724772 -0.36276297 29.36824585 -0.36327942 31.84924316 -0.36479187 C37.72237143 -0.3646905 43.59533401 -0.34978456 49.46842241 -0.32914084 C55.48617391 -0.30944835 61.50377935 -0.31362329 67.52155304 -0.31969929 C72.64636253 -0.32303457 77.77112014 -0.31641749 82.8959198 -0.30657005 C85.36158477 -0.30271015 87.82725549 -0.30157309 90.29292297 -0.3031559 C93.73380606 -0.30352515 97.17439526 -0.29094557 100.61523438 -0.2746582 C102.15663338 -0.27837433 102.15663338 -0.27837433 103.72917175 -0.28216553 C104.66300186 -0.27508072 105.59683197 -0.26799591 106.55895996 -0.26069641 C107.78012638 -0.25761711 107.78012638 -0.25761711 109.02596283 -0.25447559 C111 0 111 0 113 2 C113.25878906 5.1328125 113.25878906 5.1328125 113.265625 9.125 C113.26753845 9.8277002 113.2694519 10.53040039 113.27142334 11.25439453 C113.27278475 12.74056354 113.26909132 14.22674445 113.26074219 15.71289062 C113.25004154 17.99115646 113.26063839 20.26863377 113.2734375 22.546875 C113.2721159 23.98958508 113.26955349 25.43229466 113.265625 26.875 C113.26336914 28.19242188 113.26111328 29.50984375 113.25878906 30.8671875 C113 34 113 34 111 36 C107.98812866 36.24050903 107.98812866 36.24050903 104.07177734 36.22705078 C103.00332329 36.22748886 103.00332329 36.22748886 101.9132843 36.22793579 C99.55404566 36.22654016 97.19512111 36.21096827 94.8359375 36.1953125 C93.20211968 36.19158319 91.56829962 36.18873583 89.93447876 36.18673706 C85.63047124 36.1790941 81.32659832 36.15943999 77.02264404 36.1373291 C71.86064434 36.11329157 66.69859969 36.10409284 61.53656006 36.09242249 C53.69094638 36.0730159 45.84562812 36.03469811 38 36 C38 50.19 38 64.38 38 79 C42.34542969 78.94199219 46.69085938 78.88398437 51.16796875 78.82421875 C54.63850943 78.79205122 58.10900784 78.76494196 61.57961273 78.74124908 C65.24031107 78.7148729 68.90042818 78.67964385 72.56079102 78.62280273 C76.08808948 78.56837235 79.61482527 78.53855698 83.14251137 78.52561378 C85.13956402 78.51191361 87.13639106 78.47289706 89.13310242 78.43351746 C98.09775372 78.43074444 98.09775372 78.43074444 102.33398438 81.10351562 C104.36402687 84.63288611 104.577718 86.77160273 104.48828125 90.83203125 C104.47216797 92.12431641 104.45605469 93.41660156 104.43945312 94.74804688 C104.39768274 96.10288157 104.35535809 97.45769928 104.3125 98.8125 C104.28740069 100.18680866 104.26459036 101.56116116 104.24414062 102.93554688 C104.18526461 106.29147976 104.1030642 109.6451809 104 113 C100.55037837 115.10449721 97.85869569 115.24332803 93.85449219 115.22705078 C92.61350769 115.22689972 91.37252319 115.22674866 90.09393311 115.22659302 C88.7449121 115.21638061 87.39589273 115.20594864 86.046875 115.1953125 C84.6625387 115.19158049 83.27819975 115.18873441 81.89385986 115.18673706 C78.2573309 115.17911534 74.62096269 115.15947955 70.98449707 115.1373291 C67.27093683 115.11683909 63.55735052 115.10772861 59.84375 115.09765625 C52.56242686 115.07623215 45.28123599 115.04211401 38 115 C38.00666183 115.84746796 38.01332367 116.69493591 38.02018738 117.56808472 C38.08022763 125.54358134 38.1259382 133.51900237 38.15543652 141.49467278 C38.17111161 145.59534193 38.1923831 149.6958248 38.22631836 153.79638672 C38.25884669 157.75156619 38.27683912 161.70656617 38.28463173 165.66186905 C38.29018704 167.17301384 38.30103491 168.68414849 38.31719017 170.19521713 C38.33887859 172.30728352 38.34197066 174.41860242 38.34057617 176.53076172 C38.34723801 177.73433319 38.35389984 178.93790466 38.36076355 180.177948 C38.24171158 181.10922516 38.12265961 182.04050232 38 183 C34.35534893 185.42976738 31.59305671 185.32287722 27.375 185.3359375 C26.63169434 185.3425943 25.88838867 185.3492511 25.12255859 185.35610962 C23.55243401 185.36622576 21.98226652 185.37092696 20.41210938 185.37060547 C18.00839721 185.3749847 15.606513 185.4113275 13.203125 185.44921875 C11.67708961 185.45508596 10.15104551 185.45905599 8.625 185.4609375 C7.90618652 185.47530853 7.18737305 185.48967957 6.44677734 185.50448608 C1.49122729 185.45902847 1.49122729 185.45902847 -0.68999004 183.42078495 C-2.48902197 180.09632975 -2.37470705 177.55692129 -2.3742218 173.78160095 C-2.38018341 172.68934097 -2.38018341 172.68934097 -2.38626546 171.57501513 C-2.3958921 169.13436567 -2.3840685 166.69429533 -2.37231445 164.25366211 C-2.37474228 162.50426517 -2.37846151 160.75486962 -2.38337708 159.00547791 C-2.39279025 154.25352481 -2.38335741 149.50177753 -2.37004495 144.7498405 C-2.35873896 139.7811077 -2.36283725 134.81238515 -2.36479187 129.84364319 C-2.36567503 121.50013867 -2.3545891 113.15671537 -2.33618164 104.81323242 C-2.31500676 95.15995046 -2.31150548 85.50678744 -2.3177436 75.85348696 C-2.3234332 66.57473358 -2.31779681 57.29602218 -2.30657005 48.01727486 C-2.30191942 44.06477649 -2.30105221 40.11230376 -2.3031559 36.15980339 C-2.30503605 31.50835468 -2.29695599 26.85702747 -2.2810955 22.20560646 C-2.27684404 20.495945 -2.27600787 18.78627124 -2.27878571 17.07660675 C-2.28199577 14.74807519 -2.2729557 12.41990935 -2.26069641 10.09141541 C-2.25864354 8.78674285 -2.25659067 7.48207029 -2.25447559 6.13786221 C-2 3 -2 3 0 0 Z " fill="#FEFEFD" transform="translate(204,679)"/>
<path d="M0 0 C0.74234894 -0.00807175 1.48469788 -0.01614349 2.24954224 -0.02445984 C3.82144843 -0.03829592 5.39338462 -0.04902021 6.96533203 -0.05688477 C9.3667908 -0.07410387 11.76687468 -0.11799155 14.16796875 -0.16210938 C15.69530238 -0.17223604 17.22264771 -0.18075223 18.75 -0.1875 C19.46678925 -0.20500809 20.18357849 -0.22251617 20.92208862 -0.24055481 C24.15647337 -0.22651454 26.056611 -0.12919011 28.6055603 1.94674683 C30.65887763 4.42026077 31.51380985 6.32258844 32.48730469 9.37280273 C32.82178619 10.40094589 33.1562677 11.42908905 33.50088501 12.48838806 C34.02251724 14.1570266 34.02251724 14.1570266 34.5546875 15.859375 C34.92749847 17.01993912 35.30030945 18.18050323 35.68441772 19.37623596 C36.6830072 22.49666874 37.6701189 25.62041725 38.65097809 28.74645996 C39.25686346 30.67276395 39.86750704 32.5974904 40.47991943 34.52172852 C46.24753969 52.64436243 51.84146912 70.79632351 56.5078125 89.23828125 C58.735824 85.896264 59.74262653 82.62284074 60.87109375 78.8203125 C61.09947937 78.06678497 61.32786499 77.31325745 61.56317139 76.53689575 C62.05916708 74.90032618 62.55317768 73.26315397 63.04544067 71.62545776 C64.36850328 67.22930075 65.71097572 62.83910119 67.0546875 58.44921875 C67.47362022 57.08019661 67.47362022 57.08019661 67.90101624 55.68351746 C70.76039187 46.36777234 73.71502405 37.08356974 76.71688843 27.81283569 C77.28303819 26.06345014 77.84736781 24.31347443 78.40982056 22.56289673 C79.19917745 20.10797827 79.99503047 17.65526568 80.79296875 15.203125 C81.02377136 14.4828714 81.25457397 13.7626178 81.49237061 13.02053833 C82.84584517 8.89501655 84.36250558 5.01893034 86.5078125 1.23828125 C89.55309469 -0.28435984 92.72926496 0.07542588 96.0703125 0.0703125 C96.81740479 0.0669841 97.56449707 0.0636557 98.33422852 0.06022644 C99.91454451 0.05516159 101.49487121 0.05281798 103.07519531 0.05297852 C105.49822493 0.05078991 107.92080086 0.03262424 110.34375 0.01367188 C111.8776026 0.01073833 113.41145738 0.00875327 114.9453125 0.0078125 C115.67242432 0.00062698 116.39953613 -0.00655853 117.14868164 -0.01396179 C122.27898447 0.00945322 122.27898447 0.00945322 124.5078125 2.23828125 C124.18233804 7.87598359 121.83890642 13.04143692 119.81640625 18.25 C119.43966263 19.23414886 119.06291901 20.21829773 118.67475891 21.23226929 C117.86143948 23.35547655 117.04565208 25.47773973 116.22766113 27.59915161 C114.04221307 33.26857419 111.87610737 38.94539207 109.70703125 44.62109375 C109.04593857 46.34867668 109.04593857 46.34867668 108.37149048 48.11116028 C104.27646337 58.81993432 100.25197702 69.55404646 96.2578125 80.30078125 C95.93453979 81.16847137 95.61126709 82.0361615 95.27819824 82.93014526 C91.64879126 92.67237472 88.06828883 102.429918 84.56640625 112.21875 C62.05749918 175.02774755 62.05749918 175.02774755 41.7578125 185.98828125 C32.10923625 190.45849318 20.26632233 193.60924623 9.78515625 190.40625 C7.5078125 189.23828125 7.5078125 189.23828125 5.5078125 186.23828125 C5.04854336 182.60773944 5.13749734 178.95729783 5.1328125 175.30078125 C5.10832031 174.29853516 5.08382812 173.29628906 5.05859375 172.26367188 C5.02960382 165.02102083 5.02960382 165.02102083 7.078125 161.66796875 C10.23551938 159.81008074 13.18108075 159.08635897 16.7578125 158.30078125 C25.73025503 156.11975431 31.59931747 153.54026148 36.59765625 145.59375 C39.36474077 138.43258276 38.35593627 133.27851464 35.66015625 126.3984375 C35.3412442 125.54368332 35.02233215 124.68892914 34.6937561 123.80827332 C33.62789624 120.96572131 32.5369221 118.13353425 31.4453125 115.30078125 C30.68283909 113.28468004 29.92172125 111.26806571 29.16186523 109.25097656 C27.08202295 103.74792869 24.97746638 98.25467385 22.86462402 92.76422119 C21.47394198 89.15026209 20.08677158 85.53496977 18.70019531 81.91943359 C14.48966255 70.94678729 10.26627547 59.97920646 6.01509094 49.02223206 C5.14528645 46.77921024 4.27700367 44.53559768 3.4103241 42.29136658 C1.16885173 36.49145734 -1.10042819 30.70454522 -3.41064453 24.93164062 C-4.11580956 23.15004547 -4.11580956 23.15004547 -4.83522034 21.3324585 C-5.73385354 19.06259342 -6.64234282 16.79659778 -7.56211853 14.53521729 C-8.16184227 13.0110318 -8.16184227 13.0110318 -8.77368164 11.45605469 C-9.13063614 10.56642029 -9.48759064 9.67678589 -9.85536194 8.76019287 C-10.5910089 5.8469357 -10.42311105 4.08083796 -9.4921875 1.23828125 C-6.46770479 -0.27396011 -3.32002614 0.03402265 0 0 Z " fill="#FCFDFD" transform="translate(722.4921875,726.76171875)"/>
<path d="M0 0 C1.10572105 -0.00642769 1.10572105 -0.00642769 2.23377991 -0.01298523 C3.78955053 -0.01871621 5.34534794 -0.01923787 6.90112305 -0.01489258 C9.27374258 -0.01173394 11.64511274 -0.03520055 14.01757812 -0.06054688 C15.53255052 -0.06282024 17.04752625 -0.06352319 18.5625 -0.0625 C19.26785385 -0.07170975 19.9732077 -0.08091949 20.69993591 -0.09040833 C25.1341106 -0.04902559 27.90077491 0.47713273 31.34765625 3.30078125 C33.08098745 5.50424396 34.62241052 7.63966258 36.140625 9.98046875 C36.57272781 10.63024689 37.00483063 11.28002502 37.45002747 11.94949341 C38.35824588 13.3196862 39.26145518 14.69321094 40.15991211 16.06982422 C41.53069202 18.16894503 42.91717129 20.25696517 44.30664062 22.34375 C45.18974507 23.68036703 46.07193755 25.01758714 46.953125 26.35546875 C47.36459274 26.97646454 47.77606049 27.59746033 48.19999695 28.23727417 C50.3168788 31.49180831 52.06012533 34.63363663 53.34765625 38.30078125 C54.00765625 38.30078125 54.66765625 38.30078125 55.34765625 38.30078125 C55.56421875 37.63949219 55.78078125 36.97820313 56.00390625 36.296875 C57.80662235 32.27744695 60.27255462 28.92308695 62.84765625 25.36328125 C63.37866943 24.62198975 63.90968262 23.88069824 64.45678711 23.11694336 C65.54999351 21.59101962 66.64497178 20.06636378 67.74169922 18.54296875 C69.26208631 16.42025135 70.76360556 14.28573031 72.2578125 12.14453125 C72.93070313 11.1853479 72.93070313 11.1853479 73.6171875 10.20678711 C74.46054751 9.00433027 75.30055765 7.7995149 76.13671875 6.59204102 C78.06691363 3.85991559 79.52277455 2.18403571 82.34765625 0.30078125 C84.98601112 0.08114905 87.51638085 -0.02719013 90.15625 -0.03515625 C90.91938004 -0.04181305 91.68251007 -0.04846985 92.46876526 -0.05532837 C94.08177278 -0.06544682 95.6948221 -0.07014564 97.30786133 -0.06982422 C99.77300091 -0.07419719 102.23634912 -0.11052094 104.70117188 -0.1484375 C106.26952514 -0.15430597 107.83788689 -0.15827516 109.40625 -0.16015625 C110.14177597 -0.17452728 110.87730194 -0.18889832 111.63511658 -0.20370483 C115.2351601 -0.17163493 117.00683985 0.02379502 119.84399414 2.32958984 C120.58830688 3.30532959 120.58830688 3.30532959 121.34765625 4.30078125 C109.41872991 21.36680768 97.47502142 38.41600803 85.2578125 55.27734375 C82.60447576 58.9400925 79.97237372 62.61747607 77.34765625 66.30078125 C79.00535108 69.96005441 81.25223409 73.12367851 83.59765625 76.36328125 C84.03239258 76.96906006 84.46712891 77.57483887 84.91503906 78.19897461 C87.45504802 81.72533896 90.0291738 85.22448568 92.62890625 88.70703125 C100.72960169 99.57019176 108.47373448 110.61970378 115.84423828 121.99365234 C116.84192906 123.5246978 117.85851737 125.04360268 118.89404297 126.54931641 C119.36213379 127.24718262 119.83022461 127.94504883 120.3125 128.6640625 C120.93886353 129.5753894 120.93886353 129.5753894 121.57788086 130.50512695 C122.5727447 132.82584485 122.2216168 133.97527276 121.34765625 136.30078125 C118.54484404 139.10359346 108.70129264 137.62347966 104.73876953 137.65087891 C102.98505358 137.66741422 101.23140435 137.69467248 99.47802734 137.73291016 C96.94983959 137.78777741 94.42323483 137.80956915 91.89453125 137.82421875 C91.1141449 137.84688812 90.33375854 137.8695575 89.52972412 137.89291382 C85.60175043 137.87772738 83.65208264 137.54036363 80.53149414 135.08447266 C78.51946614 132.51978364 76.62614521 129.97712362 74.859375 127.23828125 C73.92847046 125.80367554 73.92847046 125.80367554 72.97875977 124.34008789 C72.33737061 123.3371167 71.69598145 122.33414551 71.03515625 121.30078125 C70.37378662 120.27654053 69.71241699 119.2522998 69.03100586 118.19702148 C64.37056139 110.95882411 59.78110614 103.68042148 55.34765625 96.30078125 C52.04742348 99.35110776 49.77707797 102.5516741 47.41015625 106.36328125 C43.5654948 112.46273769 39.59064498 118.46444691 35.53515625 124.42578125 C34.9841626 125.24312744 34.43316895 126.06047363 33.86547852 126.90258789 C33.07355103 128.06262329 33.07355103 128.06262329 32.265625 129.24609375 C31.79922607 129.93203613 31.33282715 130.61797852 30.85229492 131.32470703 C30.10749878 132.30286377 30.10749878 132.30286377 29.34765625 133.30078125 C28.79577637 134.03490234 28.24389648 134.76902344 27.67529297 135.52539062 C24.34419265 138.06616695 21.20675882 137.83798086 17.1875 137.76171875 C16.40121719 137.76080231 15.61493439 137.75988586 14.80482483 137.75894165 C13.14643295 137.75291155 11.48805167 137.73718308 9.82983398 137.71240234 C7.29044526 137.67585737 4.75251507 137.67138335 2.21289062 137.671875 C0.6002478 137.66204468 -1.01238515 137.65038804 -2.625 137.63671875 C-3.38442398 137.6344931 -4.14384796 137.63226746 -4.92628479 137.62997437 C-8.69187946 137.5620727 -10.44308551 137.44028674 -13.65234375 135.30078125 C-12.12402103 128.93276992 -8.3423168 124.08298443 -4.65234375 118.80078125 C-3.97316895 117.81754883 -3.29399414 116.83431641 -2.59423828 115.82128906 C2.64261367 108.25846516 7.95208446 100.75105632 13.34765625 93.30078125 C14.45594753 91.76578264 15.5640054 90.23061548 16.671875 88.6953125 C18.90188921 85.60549632 21.13384473 82.51709829 23.3671875 79.4296875 C23.86428223 78.73504395 24.36137695 78.04040039 24.87353516 77.32470703 C25.85144229 75.98206872 26.85382637 74.6569019 27.88037109 73.35107422 C30.56948554 70.20887114 30.56948554 70.20887114 31.13110352 66.33081055 C30.28126318 64.12874684 29.26464306 62.50378491 27.86328125 60.60546875 C27.34685059 59.89890137 26.83041992 59.19233398 26.29833984 58.46435547 C25.73711426 57.70912598 25.17588867 56.95389648 24.59765625 56.17578125 C23.4074525 54.55085418 22.2173512 52.92585208 21.02734375 51.30078125 C20.41600586 50.470625 19.80466797 49.64046875 19.17480469 48.78515625 C16.33869742 44.92889922 13.52798868 41.05446194 10.72265625 37.17578125 C10.18801758 36.437229 9.65337891 35.69867676 9.10253906 34.93774414 C4.14417032 28.06460108 -0.66288176 21.09157136 -5.41796875 14.07666016 C-6.28151789 12.83428349 -7.16914668 11.608457 -8.07421875 10.39599609 C-11.65234375 5.59794154 -11.65234375 5.59794154 -11.65234375 2.30078125 C-7.93874445 -0.0937247 -4.27308093 -0.00550557 0 0 Z " fill="#FDFDFD" transform="translate(413.65234375,726.69921875)"/>
<path d="M0 0 C0.99515625 -0.020625 1.9903125 -0.04125 3.015625 -0.0625 C9.62256684 -0.097001 15.78346995 0.50124683 21.875 3.25 C23.8762449 7.2524898 23.14761361 12.2867017 23.1875 16.6875 C23.23100586 18.28174805 23.23100586 18.28174805 23.27539062 19.90820312 C23.28376953 20.92720703 23.29214844 21.94621094 23.30078125 22.99609375 C23.31536377 23.93122803 23.32994629 24.8663623 23.3449707 25.82983398 C22.875 28.25 22.875 28.25 21.05102539 30.05297852 C18.01066464 31.72546688 15.4501015 31.66096512 12 31.75 C6.81887533 31.88428401 3.32048077 32.49679595 -1.125 35.25 C-4.61748825 40.91023959 -5.26278283 45.94722079 -5.6875 52.5 C-5.83333333 54.75 -5.97916667 57 -6.125 59.25 C-4.87626099 59.23428955 -4.87626099 59.23428955 -3.60229492 59.21826172 C-0.51050844 59.18415558 2.58118208 59.15908924 5.6730957 59.14013672 C7.66819618 59.12514505 9.66320946 59.09973269 11.65820312 59.07421875 C13.53862305 59.06455078 13.53862305 59.06455078 15.45703125 59.0546875 C16.61436768 59.04421387 17.7717041 59.03374023 18.96411133 59.02294922 C21.875 59.25 21.875 59.25 24.875 61.25 C25.24731445 63.74023438 25.24731445 63.74023438 25.23828125 66.84375 C25.23731445 68.51244141 25.23731445 68.51244141 25.23632812 70.21484375 C25.22021484 71.38144531 25.20410156 72.54804687 25.1875 73.75 C25.19072266 74.91660156 25.19394531 76.08320312 25.19726562 77.28515625 C25.14183218 85.98316782 25.14183218 85.98316782 22.875 88.25 C19.59917737 89.40272215 16.46433238 89.3652517 13.015625 89.34765625 C11.90058594 89.34443359 10.78554688 89.34121094 9.63671875 89.33789062 C8.47785156 89.32951172 7.31898438 89.32113281 6.125 89.3125 C4.95066406 89.30798828 3.77632812 89.30347656 2.56640625 89.29882812 C-0.33078072 89.28705094 -3.22786454 89.27060326 -6.125 89.25 C-6.11833817 90.54625809 -6.11167633 91.84251617 -6.10481262 93.17805481 C-6.04407402 105.37677849 -5.99906223 117.5754716 -5.96956348 129.77431202 C-5.95388822 136.04630127 -5.93261585 142.31816874 -5.89868164 148.59008789 C-5.86615478 154.63955067 -5.84816101 160.6888961 -5.84036827 166.73843956 C-5.83481277 169.04978979 -5.82396466 171.3611334 -5.80780983 173.67243385 C-5.78612453 176.90261488 -5.78302938 180.13230707 -5.78442383 183.36254883 C-5.773638 184.32423981 -5.76285217 185.28593079 -5.7517395 186.27676392 C-5.75792549 187.59555794 -5.75792549 187.59555794 -5.76423645 188.94099426 C-5.76147107 189.70516065 -5.75870569 190.46932703 -5.75585651 191.25664997 C-6.23057378 193.82009134 -7.05556167 194.70162035 -9.125 196.25 C-12.27954102 196.60644531 -12.27954102 196.60644531 -16.12890625 196.578125 C-16.80799545 196.57625183 -17.48708466 196.57437866 -18.18675232 196.57244873 C-19.61991295 196.56573521 -21.05305546 196.55183441 -22.48608398 196.53125 C-24.68295263 196.50006455 -26.8791037 196.49027515 -29.07617188 196.484375 C-39.79743382 196.41378309 -39.79743382 196.41378309 -42.125 195.25 C-43.05357784 192.46426647 -43.2487216 190.81520886 -43.24525452 187.94099426 C-43.24662918 187.06179825 -43.24800385 186.18260223 -43.24942017 185.27676392 C-43.24582489 184.31507294 -43.24222961 183.35338196 -43.23852539 182.36254883 C-43.23867142 181.34773941 -43.23881744 180.33292999 -43.2389679 179.28736877 C-43.23827026 175.92723465 -43.23048478 172.56715571 -43.22265625 169.20703125 C-43.22079154 166.87961355 -43.21936789 164.55219546 -43.21836853 162.22477722 C-43.21454751 156.09435953 -43.20472074 149.96396547 -43.19366455 143.83355713 C-43.18344152 137.57979655 -43.17886899 131.32603215 -43.17382812 125.07226562 C-43.16309813 112.79816669 -43.14602666 100.52408531 -43.125 88.25 C-44.40117188 88.27320313 -45.67734375 88.29640625 -46.9921875 88.3203125 C-48.6614525 88.33906829 -50.3307238 88.35726869 -52 88.375 C-52.84175781 88.39175781 -53.68351563 88.40851563 -54.55078125 88.42578125 C-55.35644531 88.43222656 -56.16210938 88.43867187 -56.9921875 88.4453125 C-57.73581543 88.45578613 -58.47944336 88.46625977 -59.24560547 88.47705078 C-61.125 88.25 -61.125 88.25 -63.125 86.25 C-63.58155797 82.28951178 -63.44902042 78.2962619 -63.4375 74.3125 C-63.45361328 73.20197266 -63.46972656 72.09144531 -63.48632812 70.94726562 C-63.48697266 69.88314453 -63.48761719 68.81902344 -63.48828125 67.72265625 C-63.49126221 66.74562744 -63.49424316 65.76859863 -63.49731445 64.76196289 C-63.125 62.25 -63.125 62.25 -61.85302734 60.42626953 C-59.75328145 58.9969709 -58.63561373 58.90013653 -56.11328125 58.95703125 C-55.35595703 58.96669922 -54.59863281 58.97636719 -53.81835938 58.98632812 C-53.03267578 59.01146484 -52.24699219 59.03660156 -51.4375 59.0625 C-50.24157227 59.08280273 -50.24157227 59.08280273 -49.02148438 59.10351562 C-47.05570033 59.13882911 -45.09026418 59.19263553 -43.125 59.25 C-43.14594727 58.56075439 -43.16689453 57.87150879 -43.18847656 57.16137695 C-44.04648848 24.65195692 -44.04648848 24.65195692 -33.125 12.25 C-23.23343943 2.86234911 -13.25666046 0.06712233 0 0 Z " fill="#FDFEFD" transform="translate(677.125,667.75)"/>
<path d="M0 0 C0.69891357 -0.00287018 1.39782715 -0.00574036 2.11791992 -0.00869751 C3.59392101 -0.01073675 5.06994921 -0.00521653 6.54589844 0.00732422 C8.80465138 0.0233817 11.06161518 0.0074728 13.3203125 -0.01171875 C14.75521228 -0.00973629 16.19011095 -0.00589256 17.625 0 C18.93082031 0.00338379 20.23664062 0.00676758 21.58203125 0.01025391 C24.8125 0.3984375 24.8125 0.3984375 26.49059486 1.59337711 C28.28454083 4.04300887 28.18985386 5.64414021 28.19345093 8.66758728 C28.20614014 10.30586235 28.20614014 10.30586235 28.21908569 11.97723389 C28.213013 13.17575989 28.20694031 14.37428589 28.20068359 15.60913086 C28.20594055 16.87110794 28.21119751 18.13308502 28.21661377 19.43330383 C28.23030286 22.89618193 28.22498197 26.35879221 28.21547651 29.82167506 C28.20788643 33.44464644 28.21492386 37.06759474 28.21963501 40.69056702 C28.22509518 46.77609375 28.2178949 52.86151132 28.20361328 58.94702148 C28.18729351 65.98223469 28.19256919 73.01718699 28.2090925 80.05239385 C28.22270874 86.0915554 28.22462615 92.13063842 28.21677649 98.16981035 C28.21209976 101.77716476 28.21147489 105.38439656 28.22138596 108.99174309 C28.2316649 113.01410226 28.21741602 117.03601218 28.20068359 121.05834961 C28.20979263 122.85310226 28.20979263 122.85310226 28.21908569 124.68411255 C28.21062622 125.77911575 28.20216675 126.87411896 28.19345093 128.00230408 C28.19231985 128.95338515 28.19118877 129.90446623 28.19002342 130.88436794 C27.74016066 133.88017221 26.93493308 135.25576326 24.8125 137.3984375 C21.58203125 137.90014648 21.58203125 137.90014648 17.625 137.89453125 C16.92608643 137.89598648 16.22717285 137.89744171 15.50708008 137.89894104 C14.03104479 137.89728283 12.55499207 137.88572987 11.07910156 137.86499023 C8.82021627 137.83603641 6.56367845 137.84437977 4.3046875 137.85742188 C2.86978026 137.85118411 1.43488044 137.84279285 0 137.83203125 C-1.30582031 137.82228271 -2.61164062 137.81253418 -3.95703125 137.80249023 C-7.1875 137.3984375 -7.1875 137.3984375 -8.86559486 136.20529938 C-10.66621032 133.74410657 -10.56487087 132.12119595 -10.56845093 129.08459473 C-10.58114014 127.43153069 -10.58114014 127.43153069 -10.59408569 125.74507141 C-10.588013 124.53562363 -10.58194031 123.32617584 -10.57568359 122.08007812 C-10.58094055 120.80674118 -10.58619751 119.53340424 -10.59161377 118.22148132 C-10.6053024 114.72768039 -10.59998251 111.23414491 -10.59047651 107.74033928 C-10.58288785 104.08620354 -10.58992331 100.43209072 -10.59463501 96.7779541 C-10.60009489 90.6411531 -10.59289491 84.50446036 -10.57861328 78.36767578 C-10.56228624 71.26995941 -10.56757459 64.17250154 -10.5840925 57.07479143 C-10.5977008 50.98384146 -10.59963027 44.89296937 -10.59177649 38.80200911 C-10.58709633 35.16282888 -10.58648444 31.52377022 -10.59638596 27.88459778 C-10.6066507 23.82850807 -10.59242903 19.77286492 -10.57568359 15.71679688 C-10.58175629 14.50734909 -10.58782898 13.29790131 -10.59408569 12.05180359 C-10.58562622 10.94976089 -10.57716675 9.8477182 -10.56845093 8.71228027 C-10.56731985 7.75290306 -10.56618877 6.79352585 -10.56502342 5.8050766 C-10.1875 3.3984375 -10.1875 3.3984375 -8.86559486 1.5905838 C-6.08578973 -0.38423567 -3.34756271 0.00867458 0 0 Z " fill="#FEFEFD" transform="translate(564.1875,726.6015625)"/>
<path d="M0 0 C0.69891357 -0.0004985 1.39782715 -0.00099701 2.11791992 -0.00151062 C3.59394172 0.00082733 5.06996769 0.0105396 6.54589844 0.02709961 C8.80439933 0.05069661 11.06171962 0.04765855 13.3203125 0.04101562 C24.39365848 0.08405357 24.39365848 0.08405357 27.8125 2.36328125 C28.19002342 4.66248989 28.19002342 4.66248989 28.19345093 7.59483337 C28.20614014 9.25845665 28.20614014 9.25845665 28.21908569 10.95568848 C28.213013 12.17808228 28.20694031 13.40047607 28.20068359 14.65991211 C28.20594055 15.9428566 28.21119751 17.22580109 28.21661377 18.54762268 C28.23032019 22.07247264 28.22497485 25.59705992 28.21547651 29.12191463 C28.2078954 32.80675272 28.21492135 36.49156791 28.21963501 40.17640686 C28.22509779 46.36626229 28.21788804 52.55601045 28.20361328 58.74584961 C28.18729289 65.90546045 28.1925686 73.06481493 28.2090925 80.22441953 C28.22270115 86.36630415 28.22462987 92.50811153 28.21677649 98.65000635 C28.2120956 102.32050024 28.21148629 105.99087361 28.22138596 109.66135979 C28.23165112 113.75347984 28.21742839 117.84515728 28.20068359 121.93725586 C28.20675629 123.15762543 28.21282898 124.377995 28.21908569 125.63534546 C28.21062622 126.74724747 28.20216675 127.85914948 28.19345093 129.00474548 C28.19231985 129.97279586 28.19118877 130.94084623 28.19002342 131.93823147 C27.8125 134.36328125 27.8125 134.36328125 26.48485756 136.17392826 C23.75548159 138.11501523 21.13653533 137.75290329 17.84375 137.76171875 C17.16703247 137.76458893 16.49031494 137.76745911 15.79309082 137.77041626 C14.36416791 137.77245522 12.93521698 137.76693694 11.50634766 137.75439453 C9.32000275 137.73833636 7.13550621 137.75424659 4.94921875 137.7734375 C3.55989176 137.77145504 2.17056591 137.76761129 0.78125 137.76171875 C-0.48267578 137.75833496 -1.74660156 137.75495117 -3.04882812 137.75146484 C-6.1875 137.36328125 -6.1875 137.36328125 -8.06054688 136.15087891 C-10.37510844 132.47947081 -10.31426678 128.23121484 -10.32794189 123.99874878 C-10.33365204 122.93602753 -10.33936218 121.87330627 -10.34524536 120.77838135 C-10.34636322 119.62287781 -10.34748108 118.46737427 -10.34863281 117.27685547 C-10.35359772 116.05199432 -10.35856262 114.82713318 -10.36367798 113.56515503 C-10.37575985 110.21410095 -10.38323667 106.86310903 -10.38768864 103.51204062 C-10.39062456 101.41828361 -10.39473015 99.32453201 -10.39919281 97.23077774 C-10.41284994 90.67886058 -10.42252759 84.12695585 -10.4263947 77.57502544 C-10.43088334 70.01231939 -10.44847582 62.44979336 -10.4773953 54.88714206 C-10.49898616 49.03820673 -10.50909744 43.18932218 -10.51043582 37.34034741 C-10.51148492 33.84760487 -10.51741584 30.35503198 -10.53525543 26.86233139 C-10.55474341 22.97180048 -10.55045757 19.08149664 -10.54394531 15.19091797 C-10.5531601 14.03136597 -10.56237488 12.87181396 -10.5718689 11.67712402 C-10.56629974 10.62004242 -10.56073059 9.56296082 -10.55499268 8.47384644 C-10.55645924 7.55393858 -10.5579258 6.63403072 -10.5594368 5.68624687 C-10.1875 3.36328125 -10.1875 3.36328125 -8.866436 1.56714058 C-6.0878097 -0.42523745 -3.35483421 -0.00765849 0 0 Z " fill="#FCFDFD" transform="translate(352.1875,726.63671875)"/>
<path d="M0 0 C5.087783 1.81090581 7.70707958 3.84186936 10.6875 8.3125 C10.00555072 22.63440223 -8.08379881 35.35661906 -17.62109375 44.8515625 C-19.39742457 46.62669941 -21.17338389 48.40220813 -22.94898987 50.17807007 C-27.12153009 54.3488562 -31.29882548 58.51483374 -35.47819525 62.67877519 C-39.29035372 66.47761815 -43.09702389 70.28192054 -46.90220493 74.08775103 C-51.03191366 78.21806932 -55.16452082 82.3454741 -59.29863167 86.47138596 C-61.0531828 88.22275052 -62.80712505 89.97472529 -64.56045341 91.727314 C-66.99930044 94.16400333 -69.44140423 96.59737833 -71.88452148 99.02978516 C-72.61125061 99.75696747 -73.33797974 100.48414978 -74.08673096 101.23336792 C-74.74960617 101.89197815 -75.41248138 102.55058838 -76.09544373 103.22915649 C-76.67185828 103.80389521 -77.24827284 104.37863392 -77.8421545 104.97078896 C-80.76853728 107.64115459 -83.51493118 107.64700268 -87.40625 107.59765625 C-89.3125 107.3125 -89.3125 107.3125 -91.25 105.5625 C-93.65843626 100.46228204 -94.55191453 94.83851396 -93.3125 89.3125 C-90.73416266 85.49115443 -87.52261125 82.53029274 -84.125 79.4375 C-83.26068359 78.60992188 -82.39636719 77.78234375 -81.50585938 76.9296875 C-78.41888788 73.9964732 -75.37064127 71.1050354 -71.9597168 68.55029297 C-69.04003428 66.08217437 -66.70382566 63.38292182 -64.22290039 60.48510742 C-60.91637548 56.72475404 -57.34014362 53.23833148 -53.78125 49.71875 C-52.58912903 48.53230896 -52.58912903 48.53230896 -51.3729248 47.32189941 C-48.00714452 43.97231427 -44.63538952 40.6287673 -41.26416016 37.28466797 C-38.78859773 34.82729061 -36.31611917 32.36683942 -33.84375 29.90625 C-33.09250854 29.16330688 -32.34126709 28.42036377 -31.56726074 27.65490723 C-27.40800017 23.51479116 -23.47867073 19.28559437 -19.73913574 14.76037598 C-19.26834595 14.2825769 -18.79755615 13.80477783 -18.3125 13.3125 C-17.6525 13.3125 -16.9925 13.3125 -16.3125 13.3125 C-16.07789063 12.75175781 -15.84328125 12.19101562 -15.6015625 11.61328125 C-12.61263297 6.27849492 -6.60814132 -0.60417292 0 0 Z " fill="#0261DC" transform="translate(416.3125,469.6875)"/>
<path d="M0 0 C2.42783806 4.07876794 3.12455849 7.89966031 2.5625 12.625 C0.46907202 16.21404611 -2.37382491 18.82346572 -5.40625 21.6328125 C-6.23451294 22.44313934 -7.06277588 23.25346619 -7.9161377 24.08834839 C-10.56516149 26.66935839 -13.24938948 29.20978373 -15.9375 31.75 C-18.58810431 34.30552618 -21.23104652 36.86878388 -23.87316895 39.43307495 C-25.51705163 41.02287056 -27.16734034 42.60607878 -28.82507324 44.181427 C-33.11166071 48.2682504 -37.15008945 52.43799595 -40.96740723 56.96871948 C-42.90798586 59.15507305 -45.11808023 60.85491649 -47.4375 62.625 C-51.48312423 66.55017657 -55.2990902 70.67595512 -59.125 74.8125 C-64.76835682 80.88836333 -70.52608506 86.8087599 -76.4375 92.625 C-77.29859375 93.49382812 -78.1596875 94.36265625 -79.046875 95.2578125 C-86.22974138 102.37025862 -86.22974138 102.37025862 -91.6875 103 C-96.54173522 102.51457648 -98.24096282 101.27818534 -101.4375 97.625 C-102.55524938 94.27175186 -102.99597834 92.9470628 -102.4375 89.625 C-99.1388574 83.16146969 -94.19513159 77.95462596 -89.07446289 72.90551758 C-88.00736839 71.83535652 -88.00736839 71.83535652 -86.91871643 70.74357605 C-84.58970598 68.41158307 -82.250197 66.09045129 -79.91015625 63.76953125 C-78.27581811 62.13825545 -76.64207423 60.50638408 -75.00889587 58.87394714 C-71.59486896 55.46450758 -68.17601227 52.06001682 -64.75317383 48.65942383 C-60.37748681 44.31203996 -56.01054159 39.95600768 -51.64675236 35.59668446 C-47.46687075 31.42197109 -43.28231922 27.25195079 -39.09765625 23.08203125 C-38.30600634 22.29226206 -37.51435642 21.50249287 -36.69871712 20.68879128 C-34.44503053 18.4420204 -32.1880091 16.19865567 -29.92993164 13.95629883 C-28.94388947 12.97193344 -28.94388947 12.97193344 -27.93792725 11.96768188 C-10.10609149 -5.70087212 -10.10609149 -5.70087212 0 0 Z " fill="#0261DC" transform="translate(389.4375,443.375)"/>
<path d="M0 0 C8.04956505 4.19217854 13.41072477 9.56336662 16.1875 18.375 C17.03857946 24.81078179 17.16815721 30.98185152 13.1875 36.375 C7.50389532 42.18490701 2.63192334 44.65773958 -5.625 44.8125 C-13.44626207 44.67370934 -17.24279901 42.82908315 -22.7421875 37.5078125 C-29.06259381 30.76779415 -31.48132348 24.57653579 -31.2265625 15.3125 C-30.38029106 9.30876298 -27.1385967 5.3544651 -22.6875 1.4375 C-16.24188731 -3.18652649 -7.2128291 -2.99189641 0 0 Z " fill="#0160DB" transform="translate(689.8125,515.625)"/>
<path d="M0 0 C5.09620539 3.01237564 8.70841667 7.93775001 10.5625 13.5 C11.24942651 21.79595861 10.29961965 27.14088352 5.875 34.1875 C0.86897018 39.19352982 -3.87050489 40.76770067 -10.9375 41.0625 C-17.97003237 40.82645435 -21.96335391 38.82270895 -26.9609375 34.04296875 C-31.4396878 29.1370544 -32.89643982 24.0935203 -32.68359375 17.5078125 C-31.87920744 10.94504169 -28.07118081 5.9386992 -23.4375 1.5 C-17.18073429 -3.23072529 -7.07144773 -3.06565653 0 0 Z " fill="#FCFDFD" transform="translate(372.4375,669.5)"/>
<path d="M0 0 C5.32911909 2.3295569 8.75317817 6.371142 11.58203125 11.3828125 C13.51121943 17.26448378 13.57110683 23.96264454 11.01953125 29.6328125 C8.02061444 34.9049296 3.2308875 39.13749374 -2.41796875 41.3828125 C-9.55412698 42.27955196 -15.86917892 42.28159225 -21.76953125 37.875 C-26.38748721 33.69476498 -29.9537416 29.50372121 -30.671875 23.12890625 C-30.96132792 17.01304626 -30.08192126 12.36066051 -26.41796875 7.3828125 C-18.89154489 -0.47540267 -10.79832362 -2.75627646 0 0 Z " fill="#FDFDFD" transform="translate(582.41796875,668.6171875)"/>
<path d="M0 0 C0 3.98537146 -1.33477489 4.85066728 -4 7.75 C-4.7425 8.56984375 -5.485 9.3896875 -6.25 10.234375 C-8.34696702 12.3432566 -10.43777355 14.27445059 -12.6875 16.20703125 C-17.70432721 20.53899554 -22.33864028 25.22959828 -27 29.9375 C-27.87011719 30.81212891 -28.74023438 31.68675781 -29.63671875 32.58789062 C-31.76013549 34.72297449 -33.88116378 36.86037205 -36 39 C-36 36 -36 36 -34.63330078 34.27253723 C-33.99376465 33.63966293 -33.35422852 33.00678864 -32.6953125 32.35473633 C-31.97456543 31.63421585 -31.25381836 30.91369537 -30.51123047 30.17134094 C-29.72377441 29.39936874 -28.93631836 28.62739655 -28.125 27.83203125 C-27.32594238 27.03721848 -26.52688477 26.2424057 -25.70361328 25.42350769 C-23.14267606 22.87940146 -20.57151863 20.34590608 -18 17.8125 C-16.26494326 16.0924843 -14.53055926 14.3717897 -12.796875 12.65039062 C-8.53903311 8.42567671 -4.27274757 4.20963524 0 0 Z " fill="#0250D6" transform="translate(588,290)"/>
<path d="M0 0 C-3.1841391 7.25276128 -10.28042871 12.32757282 -16.16796875 17.390625 C-18.56051809 19.49239542 -20.78366974 21.71440942 -23 24 C-23.66 23.67 -24.32 23.34 -25 23 C-21.76743024 19.71809541 -18.52842394 16.44273543 -15.28320312 13.17333984 C-14.17950702 12.05956877 -13.07761027 10.94401168 -11.97753906 9.82666016 C-10.39854926 8.22348763 -8.81325886 6.62679089 -7.2265625 5.03125 C-6.73378815 4.52815308 -6.24101379 4.02505615 -5.73330688 3.50671387 C-2.22774341 0 -2.22774341 0 0 0 Z " fill="#004FD8" transform="translate(394,490)"/>
<path d="M0 0 C0.33 0.66 0.66 1.32 1 2 C-2.63441275 8.27762202 -7.81293254 12.99111424 -13 18 C-13.99 17.34 -14.98 16.68 -16 16 C-15.0479279 14.99403703 -14.08812654 13.99538437 -13.125 13 C-12.32449219 12.1646875 -12.32449219 12.1646875 -11.5078125 11.3125 C-10 10 -10 10 -8 10 C-7.79375 9.46375 -7.5875 8.9275 -7.375 8.375 C-5.42003056 4.9982346 -2.81776305 2.69525161 0 0 Z " fill="#1B68DE" transform="translate(408,473)"/>
<path d="M0 0 C0.33 0.66 0.66 1.32 1 2 C-8.5 11.5 -8.5 11.5 -10.86328125 13.859375 C-12.48098033 15.48003148 -14.08703852 17.11231848 -15.6875 18.75 C-18.34439485 21.33508688 -21.1255195 23.66030657 -24 26 C-22.4152642 22.13671373 -19.94043113 19.71123077 -16.9921875 16.796875 C-16.50670441 16.3142218 -16.02122131 15.8315686 -15.52102661 15.33428955 C-13.97700134 13.80141438 -12.42615176 12.27565996 -10.875 10.75 C-9.82375991 9.70879639 -8.77297343 8.66713459 -7.72265625 7.625 C-5.15366996 5.07800536 -2.57851839 2.53734823 0 0 Z " fill="#0350D8" transform="translate(506,372)"/>
<path d="M0 0 C0 3.74016583 -0.9341591 4.45276193 -3.375 7.1875 C-4.00148438 7.90292969 -4.62796875 8.61835938 -5.2734375 9.35546875 C-7 11 -7 11 -9 11 C-9.226875 11.763125 -9.45375 12.52625 -9.6875 13.3125 C-11.27985952 16.57304568 -12.72736399 17.5273138 -16 19 C-16.66 18.67 -17.32 18.34 -18 18 C-12.06 12.06 -6.12 6.12 0 0 Z " fill="#236ADC" transform="translate(612,265)"/>
<path d="M0 0 C0 4.58867968 -2.90454332 6.81714219 -6 10 C-7.65191491 11.35156675 -9.31522656 12.68962066 -11 14 C-11.99 15.485 -11.99 15.485 -13 17 C-13.66 17 -14.32 17 -15 17 C-13.67879172 14.06769807 -12.25361803 12.01335101 -9.9609375 9.765625 C-9.38085938 9.19199219 -8.80078125 8.61835938 -8.203125 8.02734375 C-7.59984375 7.44082031 -6.9965625 6.85429687 -6.375 6.25 C-5.76398437 5.64800781 -5.15296875 5.04601562 -4.5234375 4.42578125 C-3.02011376 2.94594695 -1.51065144 1.47235324 0 0 Z " fill="#0D5AD9" transform="translate(550,328)"/>
<path d="M0 0 C5.39882424 4.59474404 10.71333087 9.27676273 16 14 C15.34 14.66 14.68 15.32 14 16 C11.65861457 13.71643754 9.32833018 11.42186626 7 9.125 C5.99839844 8.14853516 5.99839844 8.14853516 4.9765625 7.15234375 C4.34492187 6.52714844 3.71328125 5.90195312 3.0625 5.2578125 C2.47597656 4.6817627 1.88945313 4.10571289 1.28515625 3.51220703 C0 2 0 2 0 0 Z " fill="#145BDA" transform="translate(622,408)"/>
<path d="M0 0 C0.66 0.33 1.32 0.66 2 1 C-3.57737857 5.11844576 -8.05509386 6.82316211 -15 7 C-15 6.01 -15 5.02 -15 4 C-14.01 4.0825 -13.02 4.165 -12 4.25 C-7.91913408 4.29155668 -5.16856804 2.80169883 -1.69921875 0.77734375 C-0.85810547 0.39255859 -0.85810547 0.39255859 0 0 Z " fill="#0751D8" transform="translate(751,879)"/>
<path d="M0 0 C4.88049925 3.9419417 9.0580583 8.11950075 13 13 C10 13 10 13 7.7734375 10.91796875 C6.98195313 10.01691406 6.19046875 9.11585938 5.375 8.1875 C4.57835937 7.29417969 3.78171875 6.40085937 2.9609375 5.48046875 C1 3 1 3 0 0 Z " fill="#0F59D9" transform="translate(560,481)"/>
<path d="M0 0 C0.33 0.99 0.66 1.98 1 3 C-1.57784846 5.64752004 -3.91648098 7.94432065 -7 10 C-6.42424336 6.64749299 -5.40693737 5.06181371 -2.9375 2.75 C-2.38964844 2.22921875 -1.84179688 1.7084375 -1.27734375 1.171875 C-0.64505859 0.59179688 -0.64505859 0.59179688 0 0 Z " fill="#115DDA" transform="translate(413,537)"/>
<path d="M0 0 C0.598125 0.20625 1.19625 0.4125 1.8125 0.625 C-0.6625 2.11 -0.6625 2.11 -3.1875 3.625 C-2.1975 5.275 -1.2075 6.925 -0.1875 8.625 C-2.125 7.9375 -2.125 7.9375 -4.1875 6.625 C-4.9375 4 -4.9375 4 -5.1875 1.625 C-2.1875 -0.375 -2.1875 -0.375 0 0 Z " fill="#0855D8" transform="translate(328.1875,114.375)"/>
<path d="M0 0 C3.94139078 1.66751148 6.7892812 4.22710649 10 7 C9.34 7.66 8.68 8.32 8 9 C6.66368764 7.6905332 5.33102075 6.37734515 4 5.0625 C3.2575 4.33160156 2.515 3.60070312 1.75 2.84765625 C0 1 0 1 0 0 Z " fill="#195FD9" transform="translate(424,370)"/>
<path d="M0 0 C3.21043882 1.38188453 5.04936365 2.92421903 7.25 5.625 C8.03117187 6.57246094 8.03117187 6.57246094 8.828125 7.5390625 C9.40820312 8.26222656 9.40820312 8.26222656 10 9 C6.06048404 7.15014033 3.21678125 4.92434659 0 2 C0 1.34 0 0.68 0 0 Z " fill="#0551D8" transform="translate(412,332)"/>
<path d="M0 0 C1.32 1.32 2.64 2.64 4 4 C3.67 4.99 3.34 5.98 3 7 C2.67 6.01 2.34 5.02 2 4 C0.35 4.33 -1.3 4.66 -3 5 C-2.01 3.35 -1.02 1.7 0 0 Z " fill="#0651D8" transform="translate(468,822)"/>
<path d="M0 0 C0.99 0.495 0.99 0.495 2 1 C2.75 4.4375 2.75 4.4375 3 8 C2.34 8.66 1.68 9.32 1 10 C0 3.375 0 3.375 0 0 Z " fill="#0A55D8" transform="translate(778,808)"/>
<path d="M0 0 C0.33 0 0.66 0 1 0 C0.88590407 1.45922693 0.75834456 2.91740598 0.625 4.375 C0.55539062 5.18710937 0.48578125 5.99921875 0.4140625 6.8359375 C0 9 0 9 -2 11 C-3.13643966 7.59068103 -2.86747764 6.99664544 -1.5625 3.8125 C-1.13130859 2.73935547 -1.13130859 2.73935547 -0.69140625 1.64453125 C-0.46324219 1.10183594 -0.23507812 0.55914063 0 0 Z " fill="#0B59D9" transform="translate(803,847)"/>
<path d="M0 0 C0.33 1.32 0.66 2.64 1 4 C-1.97 6.475 -1.97 6.475 -5 9 C-3.7508258 5.54074837 -2.32472205 2.85306797 0 0 Z " fill="#0656D9" transform="translate(514,760)"/>
<path d="M0 0 C3.11198065 1.49836105 6.0534615 3.19933758 9 5 C8.67 5.99 8.34 6.98 8 8 C6.85073734 7.04578192 5.70569459 6.08647955 4.5625 5.125 C3.92441406 4.59132812 3.28632813 4.05765625 2.62890625 3.5078125 C1 2 1 2 0 0 Z " fill="#0856D8" transform="translate(268,193)"/>
</svg>
